<?xml version="1.0" encoding="iso-8859-1"?>
<!-- Generator: Adobe Illustrator 19.0.0, SVG Export Plug-In . SVG Version: 6.00 Build 0)  -->
<svg version="1.1" id="Capa_1" xmlns="http://www.w3.org/2000/svg" xmlns:xlink="http://www.w3.org/1999/xlink" x="0px" y="0px"
	 viewBox="0 0 480 480" style="enable-background:new 0 0 480 480;" xml:space="preserve">
<g>
	<g>
		<path fill="#fff" d="M300,48H140c-4.418,0-8,3.582-8,8v64c0,4.418,3.582,8,8,8h160c4.418,0,8-3.582,8-8V56C308,51.582,304.418,48,300,48z
			 M172,112h-24V64h24V112z M212,112h-24V64h24V112z M252,112h-24V64h24V112z M292,112h-24V64h24V112z"/>
	</g>
</g>
<g>
	<g>
		<path fill="#fff" d="M457.656,106.344l-48-48l-11.312,11.312L444,115.312v15.744l-43.576,21.784c-2.712,1.355-4.425,4.128-4.424,7.16v48
			c0,4.418,3.582,8,8,8h24v136c0,8.837-7.163,16-16,16s-16-7.163-16-16v-9.536c-0.018-21.236-17.228-38.446-38.464-38.464H356
			V56.256C355.969,25.199,330.801,0.031,299.744,0H140.256C109.199,0.031,84.031,25.199,84,56.256V304H60c-22.091,0-40,17.909-40,40
			c0,22.091,17.909,40,40,40h24v16H60c-4.418,0-8,3.582-8,8v64c0,4.418,3.582,8,8,8h320c4.418,0,8-3.582,8-8v-64
			c0-4.418-3.582-8-8-8h-24v-80h1.536c12.399,0.018,22.446,10.065,22.464,22.464V352c0,17.673,14.327,32,32,32
			c17.673,0,32-14.327,32-32V216h8c4.418,0,8-3.582,8-8v-96C460,109.878,459.156,107.844,457.656,106.344z M100,56.256
			c0.031-22.22,18.036-40.225,40.256-40.256h159.488c22.22,0.031,40.225,18.036,40.256,40.256V400H100V56.256z M60,368
			c-13.255,0-24-10.745-24-24s10.745-24,24-24h24v48H60z M372,416v48H68v-48H372z M444,200h-32v-35.056l32-16V200z"/>
	</g>
</g>
<g>
	<g>
		<rect fill="#fff" x="260" y="144" width="16" height="16"/>
	</g>
</g>
<g>
	<g>
		<rect fill="#fff" x="292" y="144" width="16" height="16"/>
	</g>
</g>
<g>
	<g>
		<rect fill="#fff" x="132" y="144" width="32" height="16"/>
	</g>
</g>
<g>
	<g>
		<path fill="#fff" d="M220,216c-39.764,0-72,32.235-72,72c0,39.764,32.236,72,72,72c39.765,0,72-32.236,72-72
			C291.956,248.254,259.746,216.044,220,216z M220,344c-30.928,0-56-25.072-56-56c0-30.928,25.072-56,56-56
			c30.928,0,56,25.072,56,56C275.96,318.911,250.911,343.96,220,344z"/>
	</g>
</g>
<g>
	<g>
		<path fill="#fff" d="M242.631,273.383c-0.002-0.002-0.005-0.005-0.007-0.007l-16.968-16.968c-3.124-3.123-8.188-3.123-11.312,0l-16.968,16.968
			c-12.499,12.495-12.502,32.756-0.007,45.255s32.756,12.502,45.255,0.007C255.123,306.143,255.126,285.881,242.631,273.383z
			 M231.312,307.312L231.312,307.312c-6.329,6.046-16.295,6.046-22.624,0c-6.246-6.248-6.246-16.376,0-22.624L220,273.376
			l11.312,11.312C237.558,290.936,237.558,301.064,231.312,307.312z"/>
	</g>
</g>
<g>
</g>
<g>
</g>
<g>
</g>
<g>
</g>
<g>
</g>
<g>
</g>
<g>
</g>
<g>
</g>
<g>
</g>
<g>
</g>
<g>
</g>
<g>
</g>
<g>
</g>
<g>
</g>
<g>
</g>
</svg>
